<svg height="96" viewBox="0 0 25.399999 25.4" width="96" xmlns="http://www.w3.org/2000/svg"><g fill="#fbfbfe" stroke-width=".264583"><path d="m1.2233261 25.4q-.45069775 0-.83701014-.257542-.3863124-.257541-.3863124-.676046v-23.53286363q0-.4185051.3863124-.67604669.38631239-.2575416.83701014-.2575416h5.2796028q.4828904 0 .7082393.3863124.2253489.35411969.2253489.80481752 0 .4828905-.2575416.8692028-.2253489.3541197-.6760466.3541197h-3.7987386v20.5711345h3.7987386q.4506977 0 .6760466.35412.2575416.35412.2575416.869203 0 .450698-.2253489.804818-.2253489.386312-.7082393.386312z"/><path d="m18.897074 25.4q-.48289 0-.708239-.386312-.225349-.35412-.225349-.804818 0-.515083.257542-.869203.257541-.35412.676046-.35412h3.798739v-20.5711345h-3.798739q-.418505 0-.676046-.3541197-.257542-.3863123-.257542-.8692028 0-.45069783.225349-.80481752.225349-.3863124.708239-.3863124h5.279603q.482891 0 .83701.2575416.386313.25754159.386313.67604669v23.53286363q0 .418505-.386313.676046-.386312.257542-.83701.257542z"/></g></svg>