<svg height="96" viewBox="0 0 25.399999 25.4" width="96" xmlns="http://www.w3.org/2000/svg"><g fill="#fbfbfe" stroke-width=".264583"><rect fill="#fbfbfe" height="25.400002" ry="2.959142" width="25.4" y="-.000001"/><g fill="#2e3436" stroke-width=".264583" transform="translate(0 .00002)"><path d="m3.3328902 23.06557q-.3678536 0-.6831566-.210203-.3153032-.210202-.3153032-.55178v-19.2072136q0-.3415783.3153032-.5517804.315303-.2102021.6831566-.2102021h4.3091423q.3941288 0 .5780556.3153031.1839268.2890279.1839268.6568815 0 .3941288-.2102021.7094319-.1839268.2890278-.5517803.2890278h-3.1004805v16.7898898h3.1004805q.3678535 0 .5517803.289028.2102021.289028.2102021.709431 0 .367855-.1839268.656883-.1839268.315303-.5780556.315303z"/><path d="m17.75797 23.06557q-.394127 0-.578054-.315303-.183928-.289028-.183928-.656883 0-.420403.210203-.709431.210201-.289028.551779-.289028h3.100482v-16.7898898h-3.100482q-.341578 0-.551779-.2890278-.210203-.3153031-.210203-.7094319 0-.3678536.183928-.6568815.183927-.3153031.578054-.3153031h4.309144q.394128 0 .683156.2102021.315303.2102021.315303.5517804v19.2072136q0 .341578-.315303.55178-.315303.210203-.683156.210203z"/></g></g></svg>